{
  "accessors": [
    {
      "bufferView": 2,
      "componentType": 5126,
      "count": 324,
      "max": [
        0.4000000059604645,
        0.11285334825515747,
        15.0600004196167
      ],
      "min": [
        0.3799999952316284,
        -0.04688030108809471,
        14.888326644897461
      ],
      "type": "VEC3"
    },
    {
      "bufferView": 2,
      "byteOffset": 3888,
      "componentType": 5126,
      "count": 324,
      "max": [
        1.0,
        0.9999926090240479,
        0.9998183250427246
      ],
      "min": [
        -1.0,
        -0.9999663233757019,
        -0.9969038963317871
      ],
      "type": "VEC3"
    },
    {
      "bufferView": 1,
      "componentType": 5126,
      "count": 324,
      "max": [
        1.0,
        1.0
      ],
      "min": [
        -9.863678818441626e-17,
        0.0
      ],
      "type": "VEC2"
    },
    {
      "bufferView": 0,
      "componentType": 5125,
      "count": 948,
      "type": "SCALAR"
    },
    {
      "bufferView": 2,
      "byteOffset": 7776,
      "componentType": 5126,
      "count": 202,
      "max": [
        0.4000000059604645,
        -0.045870982110500336,
        15.75914192199707
      ],
      "min": [
        0.3799999952316284,
        -0.08412237465381622,
        15.720857620239258
      ],
      "type": "VEC3"
    },
    {
      "bufferView": 2,
      "byteOffset": 10200,
      "componentType": 5126,
      "count": 202,
      "max": [
        1.0,
        0.9994809031486511,
        0.9999996423721313
      ],
      "min": [
        -1.0,
        -0.9986518621444702,
        -0.9999996423721313
      ],
      "type": "VEC3"
    },
    {
      "bufferView": 1,
      "byteOffset": 2592,
      "componentType": 5126,
      "count": 202,
      "max": [
        1.0,
        1.0
      ],
      "min": [
        0.0,
        0.0
      ],
      "type": "VEC2"
    },
    {
      "bufferView": 0,
      "byteOffset": 3792,
      "componentType": 5125,
      "count": 582,
      "type": "SCALAR"
    },
    {
      "bufferView": 2,
      "byteOffset": 12624,
      "componentType": 5126,
      "count": 412,
      "max": [
        0.4000000059604645,
        0.12439291179180145,
        15.704427719116211
      ],
      "min": [
        0.3799999952316284,
        -0.03445419669151306,
        15.5649995803833
      ],
      "type": "VEC3"
    },
    {
      "bufferView": 2,
      "byteOffset": 17568,
      "componentType": 5126,
      "count": 412,
      "max": [
        1.0,
        1.0,
        0.9999972581863403
      ],
      "min": [
        -1.0,
        -1.0,
        -0.9999974966049194
      ],
      "type": "VEC3"
    },
    {
      "bufferView": 1,
      "byteOffset": 4208,
      "componentType": 5126,
      "count": 412,
      "max": [
        1.0,
        1.0
      ],
      "min": [
        -4.172009721514769e-05,
        0.0
      ],
      "type": "VEC2"
    },
    {
      "bufferView": 0,
      "byteOffset": 6120,
      "componentType": 5125,
      "count": 1188,
      "type": "SCALAR"
    },
    {
      "bufferView": 2,
      "byteOffset": 22512,
      "componentType": 5126,
      "count": 393,
      "max": [
        0.4000000059604645,
        0.12527833878993988,
        15.39502239227295
      ],
      "min": [
        0.3799999952316284,
        -0.024998439475893974,
        15.264999389648438
      ],
      "type": "VEC3"
    },
    {
      "bufferView": 2,
      "byteOffset": 27228,
      "componentType": 5126,
      "count": 393,
      "max": [
        1.0,
        1.0,
        0.9999901056289673
      ],
      "min": [
        -1.0,
        -1.0,
        -0.999997615814209
      ],
      "type": "VEC3"
    },
    {
      "bufferView": 1,
      "byteOffset": 7504,
      "componentType": 5126,
      "count": 393,
      "max": [
        1.0,
        1.0
      ],
      "min": [
        -2.202902641659961e-14,
        0.0
      ],
      "type": "VEC2"
    },
    {
      "bufferView": 0,
      "byteOffset": 10872,
      "componentType": 5125,
      "count": 1134,
      "type": "SCALAR"
    },
    {
      "bufferView": 2,
      "byteOffset": 31944,
      "componentType": 5126,
      "count": 216,
      "max": [
        0.4000000059604645,
        0.125,
        15.545000076293945
      ],
      "min": [
        0.3799999952316284,
        -0.03500000014901161,
        15.425000190734863
      ],
      "type": "VEC3"
    },
    {
      "bufferView": 2,
      "byteOffset": 34536,
      "componentType": 5126,
      "count": 216,
      "max": [
        1.0,
        1.0,
        1.0
      ],
      "min": [
        -1.0,
        -1.0,
        -1.0
      ],
      "type": "VEC3"
    },
    {
      "bufferView": 1,
      "byteOffset": 10648,
      "componentType": 5126,
      "count": 216,
      "max": [
        1.0000765323638916,
        1.0
      ],
      "min": [
        -1.6612962741580084e-11,
        0.0
      ],
      "type": "VEC2"
    },
    {
      "bufferView": 0,
      "byteOffset": 15408,
      "componentType": 5125,
      "count": 576,
      "type": "SCALAR"
    },
    {
      "bufferView": 2,
      "byteOffset": 37128,
      "componentType": 5126,
      "count": 100,
      "max": [
        0.4000000059604645,
        -0.06000000238418579,
        15.019999504089355
      ],
      "min": [
        0.3799999952316284,
        -0.12000000476837158,
        14.969999313354492
      ],
      "type": "VEC3"
    },
    {
      "bufferView": 2,
      "byteOffset": 38328,
      "componentType": 5126,
      "count": 100,
      "max": [
        1.0,
        0.9805843830108643,
        1.0
      ],
      "min": [
        -1.0,
        -0.9805843830108643,
        -1.0
      ],
      "type": "VEC3"
    },
    {
      "bufferView": 1,
      "byteOffset": 12376,
      "componentType": 5126,
      "count": 100,
      "max": [
        1.0,
        1.0
      ],
      "min": [
        0.0,
        0.0
      ],
      "type": "VEC2"
    },
    {
      "bufferView": 0,
      "byteOffset": 17712,
      "componentType": 5125,
      "count": 276,
      "type": "SCALAR"
    },
    {
      "bufferView": 2,
      "byteOffset": 39528,
      "componentType": 5126,
      "count": 243,
      "max": [
        0.4000000059604645,
        0.12000000476837158,
        15.249994277954102
      ],
      "min": [
        0.3799999952316284,
        -0.07999999821186066,
        15.110000610351563
      ],
      "type": "VEC3"
    },
    {
      "bufferView": 2,
      "byteOffset": 42444,
      "componentType": 5126,
      "count": 243,
      "max": [
        1.0,
        1.0,
        1.0
      ],
      "min": [
        -1.0,
        -1.0,
        -1.0
      ],
      "type": "VEC3"
    },
    {
      "bufferView": 1,
      "byteOffset": 13176,
      "componentType": 5126,
      "count": 243,
      "max": [
        1.0,
        1.0
      ],
      "min": [
        -3.0090207032373692e-36,
        0.0
      ],
      "type": "VEC2"
    },
    {
      "bufferView": 0,
      "byteOffset": 18816,
      "componentType": 5125,
      "count": 672,
      "type": "SCALAR"
    },
    {
      "bufferView": 2,
      "byteOffset": 45360,
      "componentType": 5126,
      "count": 24,
      "max": [
        0.4000000059604645,
        0.125,
        15.824999809265137
      ],
      "min": [
        0.3799999952316284,
        -0.08500000089406967,
        15.795000076293945
      ],
      "type": "VEC3"
    },
    {
      "bufferView": 2,
      "byteOffset": 45648,
      "componentType": 5126,
      "count": 24,
      "max": [
        1.0,
        1.0,
        1.0
      ],
      "min": [
        -1.0,
        -1.0,
        -1.0
      ],
      "type": "VEC3"
    },
    {
      "bufferView": 1,
      "byteOffset": 15120,
      "componentType": 5126,
      "count": 24,
      "max": [
        1.0,
        1.0
      ],
      "min": [
        0.0,
        0.0
      ],
      "type": "VEC2"
    },
    {
      "bufferView": 0,
      "byteOffset": 21504,
      "componentType": 5125,
      "count": 36,
      "type": "SCALAR"
    },
    {
      "bufferView": 2,
      "byteOffset": 45936,
      "componentType": 5126,
      "count": 24,
      "max": [
        0.4000000059604645,
        0.125,
        15.755000114440918
      ],
      "min": [
        0.3799999952316284,
        -0.03500000014901161,
        15.725000381469727
      ],
      "type": "VEC3"
    },
    {
      "bufferView": 2,
      "byteOffset": 46224,
      "componentType": 5126,
      "count": 24,
      "max": [
        1.0,
        1.0,
        1.0
      ],
      "min": [
        -1.0,
        -1.0,
        -1.0
      ],
      "type": "VEC3"
    },
    {
      "bufferView": 1,
      "byteOffset": 15312,
      "componentType": 5126,
      "count": 24,
      "max": [
        1.0,
        1.0
      ],
      "min": [
        0.0,
        0.0
      ],
      "type": "VEC2"
    },
    {
      "bufferView": 0,
      "byteOffset": 21648,
      "componentType": 5125,
      "count": 36,
      "type": "SCALAR"
    },
    {
      "bufferView": 2,
      "byteOffset": 46512,
      "componentType": 5126,
      "count": 3974,
      "max": [
        0.4000000059604645,
        0.44968780875205994,
        16.435001373291016
      ],
      "min": [
        -0.44999998807907104,
        -0.44968780875205994,
        0.7899999618530273
      ],
      "type": "VEC3"
    },
    {
      "bufferView": 2,
      "byteOffset": 94200,
      "componentType": 5126,
      "count": 3974,
      "max": [
        1.0,
        1.0,
        1.0
      ],
      "min": [
        -1.0,
        -1.0,
        -1.0
      ],
      "type": "VEC3"
    },
    {
      "bufferView": 1,
      "byteOffset": 15504,
      "componentType": 5126,
      "count": 3974,
      "max": [
        1.0000765323638916,
        1.0
      ],
      "min": [
        -2.3315096768783405e-06,
        0.0
      ],
      "type": "VEC2"
    },
    {
      "bufferView": 0,
      "byteOffset": 21792,
      "componentType": 5125,
      "count": 13764,
      "type": "SCALAR"
    },
    {
      "bufferView": 2,
      "byteOffset": 141888,
      "componentType": 5126,
      "count": 969,
      "max": [
        0.22616665065288544,
        0.22616665065288544,
        0.7899999618530273
      ],
      "min": [
        -0.22616665065288544,
        -0.22616665065288544,
        -0.0
      ],
      "type": "VEC3"
    },
    {
      "bufferView": 2,
      "byteOffset": 153516,
      "componentType": 5126,
      "count": 969,
      "max": [
        0.9999015927314758,
        0.9999015927314758,
        1.0
      ],
      "min": [
        -0.9999015927314758,
        -0.9999015927314758,
        -1.0
      ],
      "type": "VEC3"
    },
    {
      "bufferView": 1,
      "byteOffset": 47296,
      "componentType": 5126,
      "count": 969,
      "max": [
        1.0,
        1.0
      ],
      "min": [
        -7.037323414976759e-12,
        0.0
      ],
      "type": "VEC2"
    },
    {
      "bufferView": 0,
      "byteOffset": 76848,
      "componentType": 5125,
      "count": 4350,
      "type": "SCALAR"
    },
    {
      "bufferView": 2,
      "byteOffset": 165144,
      "componentType": 5126,
      "count": 437,
      "max": [
        0.3819367289543152,
        0.3815474808216095,
        16.600000381469727
      ],
      "min": [
        -0.3821309208869934,
        -0.3821176290512085,
        16.434921264648438
      ],
      "type": "VEC3"
    },
    {
      "bufferView": 2,
      "byteOffset": 170388,
      "componentType": 5126,
      "count": 437,
      "max": [
        0.8305579423904419,
        0.7276301383972168,
        1.0
      ],
      "min": [
        -0.7287346720695496,
        -0.7287057042121887,
        -1.0
      ],
      "type": "VEC3"
    },
    {
      "bufferView": 1,
      "byteOffset": 55048,
      "componentType": 5126,
      "count": 437,
      "max": [
        1.0000008344650269,
        1.0000337362289429
      ],
      "min": [
        -1.3503664376912639e-05,
        -2.384185791015625e-05
      ],
      "type": "VEC2"
    },
    {
      "bufferView": 0,
      "byteOffset": 94248,
      "componentType": 5125,
      "count": 1680,
      "type": "SCALAR"
    }
  ],
  "asset": {
    "extras": {
      "author": "umezawa (https://sketchfab.com/umezawa)",
      "license": "CC-BY-4.0 (http://creativecommons.org/licenses/by/4.0/)",
      "source": "https://sketchfab.com/3d-models/apple-pencil-c36f974ba8f4479a8b255ff4e5cab67f",
      "title": "apple pencil"
    },
    "generator": "Sketchfab-13.57.0",
    "version": "2.0"
  },
  "bufferViews": [
    {
      "buffer": 0,
      "byteLength": 100968,
      "name": "floatBufferViews",
      "target": 34963
    },
    {
      "buffer": 0,
      "byteLength": 58544,
      "byteOffset": 100968,
      "byteStride": 8,
      "name": "floatBufferViews",
      "target": 34962
    },
    {
      "buffer": 0,
      "byteLength": 175632,
      "byteOffset": 159512,
      "byteStride": 12,
      "name": "floatBufferViews",
      "target": 34962
    }
  ],
  "buffers": [
    {
      "byteLength": 335144,
      "uri": "scene.bin"
    }
  ],
  "materials": [
    {
      "doubleSided": true,
      "name": "RGB_76-76-76",
      "pbrMetallicRoughness": {
        "baseColorFactor": [
          0.298039,
          0.298039,
          0.298039,
          1.0
        ],
        "metallicFactor": 0.0,
        "roughnessFactor": 0.9524317153998911
      }
    },
    {
      "doubleSided": true,
      "name": "RGB_240-237-237",
      "pbrMetallicRoughness": {
        "baseColorFactor": [
          0.941176,
          0.929412,
          0.929412,
          1.0
        ],
        "metallicFactor": 0.0,
        "roughnessFactor": 0.9524317153998911
      }
    },
    {
      "doubleSided": true,
      "name": "RGB_205-205-205",
      "pbrMetallicRoughness": {
        "baseColorFactor": [
          0.803922,
          0.803922,
          0.803922,
          1.0
        ],
        "metallicFactor": 0.0,
        "roughnessFactor": 0.9524317153998911
      }
    },
    {
      "doubleSided": true,
      "name": "RGB_217-217-217",
      "pbrMetallicRoughness": {
        "baseColorFactor": [
          0.85098,
          0.85098,
          0.85098,
          1.0
        ],
        "metallicFactor": 0.0,
        "roughnessFactor": 0.9524317153998911
      }
    }
  ],
  "meshes": [
    {
      "name": "apple_pencil_body12_RGB_76-76-76_0",
      "primitives": [
        {
          "attributes": {
            "NORMAL": 1,
            "POSITION": 0,
            "TEXCOORD_0": 2
          },
          "indices": 3,
          "material": 0,
          "mode": 4
        }
      ]
    },
    {
      "name": "apple_pencil_body13_RGB_76-76-76_0",
      "primitives": [
        {
          "attributes": {
            "NORMAL": 5,
            "POSITION": 4,
            "TEXCOORD_0": 6
          },
          "indices": 7,
          "material": 0,
          "mode": 4
        }
      ]
    },
    {
      "name": "apple_pencil_body14_RGB_76-76-76_0",
      "primitives": [
        {
          "attributes": {
            "NORMAL": 9,
            "POSITION": 8,
            "TEXCOORD_0": 10
          },
          "indices": 11,
          "material": 0,
          "mode": 4
        }
      ]
    },
    {
      "name": "apple_pencil_body15_RGB_76-76-76_0",
      "primitives": [
        {
          "attributes": {
            "NORMAL": 13,
            "POSITION": 12,
            "TEXCOORD_0": 14
          },
          "indices": 15,
          "material": 0,
          "mode": 4
        }
      ]
    },
    {
      "name": "apple_pencil_body16_RGB_76-76-76_0",
      "primitives": [
        {
          "attributes": {
            "NORMAL": 17,
            "POSITION": 16,
            "TEXCOORD_0": 18
          },
          "indices": 19,
          "material": 0,
          "mode": 4
        }
      ]
    },
    {
      "name": "apple_pencil_body17_RGB_76-76-76_0",
      "primitives": [
        {
          "attributes": {
            "NORMAL": 21,
            "POSITION": 20,
            "TEXCOORD_0": 22
          },
          "indices": 23,
          "material": 0,
          "mode": 4
        }
      ]
    },
    {
      "name": "apple_pencil_body18_RGB_76-76-76_0",
      "primitives": [
        {
          "attributes": {
            "NORMAL": 25,
            "POSITION": 24,
            "TEXCOORD_0": 26
          },
          "indices": 27,
          "material": 0,
          "mode": 4
        }
      ]
    },
    {
      "name": "apple_pencil_body19_RGB_76-76-76_0",
      "primitives": [
        {
          "attributes": {
            "NORMAL": 29,
            "POSITION": 28,
            "TEXCOORD_0": 30
          },
          "indices": 31,
          "material": 0,
          "mode": 4
        }
      ]
    },
    {
      "name": "apple_pencil_body20_RGB_76-76-76_0",
      "primitives": [
        {
          "attributes": {
            "NORMAL": 33,
            "POSITION": 32,
            "TEXCOORD_0": 34
          },
          "indices": 35,
          "material": 0,
          "mode": 4
        }
      ]
    },
    {
      "name": "apple_pencil_body21_RGB_240-237-237_0",
      "primitives": [
        {
          "attributes": {
            "NORMAL": 37,
            "POSITION": 36,
            "TEXCOORD_0": 38
          },
          "indices": 39,
          "material": 1,
          "mode": 4
        }
      ]
    },
    {
      "name": "apple_pencil_body21_RGB_205-205-205_0",
      "primitives": [
        {
          "attributes": {
            "NORMAL": 41,
            "POSITION": 40,
            "TEXCOORD_0": 42
          },
          "indices": 43,
          "material": 2,
          "mode": 4
        }
      ]
    },
    {
      "name": "apple_pencil_body22_RGB_217-217-217_0",
      "primitives": [
        {
          "attributes": {
            "NORMAL": 45,
            "POSITION": 44,
            "TEXCOORD_0": 46
          },
          "indices": 47,
          "material": 3,
          "mode": 4
        }
      ]
    }
  ],
  "nodes": [
    {
      "children": [
        1
      ],
      "matrix": [
        1.0,
        0.0,
        0.0,
        0.0,
        0.0,
        2.220446049250313e-16,
        -1.0,
        0.0,
        0.0,
        1.0,
        2.220446049250313e-16,
        0.0,
        0.0,
        0.0,
        0.0,
        1.0
      ],
      "name": "Sketchfab_model"
    },
    {
      "children": [
        2
      ],
      "matrix": [
        0.009999999776482582,
        0.0,
        0.0,
        0.0,
        0.0,
        0.0,
        0.009999999776482582,
        0.0,
        0.0,
        -0.009999999776482582,
        0.0,
        0.0,
        0.0,
        0.0,
        0.0,
        1.0
      ],
      "name": "6357003327eb4f9d8710634d3e90b0f0.fbx"
    },
    {
      "children": [
        3,
        5
      ],
      "name": "RootNode"
    },
    {
      "children": [
        4
      ],
      "matrix": [
        -0.5740915306781351,
        -0.14817929185147102,
        -0.8052712660153921,
        0.0,
        -0.08601807180740575,
        0.9889605136032462,
        -0.1206565118679444,
        0.0,
        0.8142602813143792,
        -2.220446049250313e-16,
        -0.5804999520015726,
        0.0,
        18.72555160522461,
        13.146081924438477,
        31.91034507751465,
        1.0
      ],
      "name": "CINEMA_4D_Editor"
    },
    {
      "name": "Object_4"
    },
    {
      "children": [
        6,
        8,
        10,
        12,
        14,
        16,
        18,
        20,
        22,
        24,
        27
      ],
      "matrix": [
        0.0,
        -0.0871557427476582,
        0.9961946980917455,
        0.0,
        1.0,
        0.0,
        1.1102230246251565e-16,
        0.0,
        -1.1102230246251565e-16,
        0.9961946980917455,
        0.08715574274765814,
        0.0,
        0.0,
        0.0,
        0.0,
        1.0
      ],
      "name": "apple_pencil_iges"
    },
    {
      "children": [
        7
      ],
      "name": "apple_pencil_body12"
    },
    {
      "mesh": 0,
      "name": "apple_pencil_body12_RGB_76-76-76_0"
    },
    {
      "children": [
        9
      ],
      "name": "apple_pencil_body13"
    },
    {
      "mesh": 1,
      "name": "apple_pencil_body13_RGB_76-76-76_0"
    },
    {
      "children": [
        11
      ],
      "name": "apple_pencil_body14"
    },
    {
      "mesh": 2,
      "name": "apple_pencil_body14_RGB_76-76-76_0"
    },
    {
      "children": [
        13
      ],
      "name": "apple_pencil_body15"
    },
    {
      "mesh": 3,
      "name": "apple_pencil_body15_RGB_76-76-76_0"
    },
    {
      "children": [
        15
      ],
      "name": "apple_pencil_body16"
    },
    {
      "mesh": 4,
      "name": "apple_pencil_body16_RGB_76-76-76_0"
    },
    {
      "children": [
        17
      ],
      "name": "apple_pencil_body17"
    },
    {
      "mesh": 5,
      "name": "apple_pencil_body17_RGB_76-76-76_0"
    },
    {
      "children": [
        19
      ],
      "name": "apple_pencil_body18"
    },
    {
      "mesh": 6,
      "name": "apple_pencil_body18_RGB_76-76-76_0"
    },
    {
      "children": [
        21
      ],
      "name": "apple_pencil_body19"
    },
    {
      "mesh": 7,
      "name": "apple_pencil_body19_RGB_76-76-76_0"
    },
    {
      "children": [
        23
      ],
      "name": "apple_pencil_body20"
    },
    {
      "mesh": 8,
      "name": "apple_pencil_body20_RGB_76-76-76_0"
    },
    {
      "children": [
        25,
        26
      ],
      "name": "apple_pencil_body21"
    },
    {
      "mesh": 9,
      "name": "apple_pencil_body21_RGB_240-237-237_0"
    },
    {
      "mesh": 10,
      "name": "apple_pencil_body21_RGB_205-205-205_0"
    },
    {
      "children": [
        28
      ],
      "name": "apple_pencil_body22"
    },
    {
      "mesh": 11,
      "name": "apple_pencil_body22_RGB_217-217-217_0"
    }
  ],
  "scene": 0,
  "scenes": [
    {
      "name": "Sketchfab_Scene",
      "nodes": [
        0
      ]
    }
  ]
}
